<svg width="165" height="108" viewBox="0 0 165 108" fill="none" xmlns="http://www.w3.org/2000/svg">
<g filter="url(#filter0_d)">
<path d="M86.282 42.0563L89.35 50.7188L92.4016 42.0563H95.6336V54H93.1645V50.7352L93.4105 45.0996L90.1867 54H88.4969L85.2812 45.1078L85.5273 50.7352V54H83.0664V42.0563H86.282ZM100.941 50.6449L102.582 45.1242H105.125L101.556 55.3781L101.359 55.8457C100.829 57.0051 99.9539 57.5848 98.7344 57.5848C98.3898 57.5848 98.0398 57.5328 97.6844 57.4289V55.6324L98.0453 55.6406C98.4937 55.6406 98.8273 55.5723 99.0461 55.4355C99.2703 55.2988 99.4453 55.0719 99.5711 54.7547L99.85 54.0246L96.741 45.1242H99.2922L100.941 50.6449ZM114.812 51.0387L117.52 42.0563H120.259L116.1 54H113.533L109.39 42.0563H112.122L114.812 51.0387ZM123.737 54H121.359V45.1242H123.737V54ZM121.219 42.8273C121.219 42.4719 121.337 42.1793 121.572 41.9496C121.812 41.7199 122.138 41.6051 122.548 41.6051C122.953 41.6051 123.275 41.7199 123.516 41.9496C123.757 42.1793 123.877 42.4719 123.877 42.8273C123.877 43.1883 123.754 43.4836 123.508 43.7133C123.267 43.943 122.947 44.0578 122.548 44.0578C122.149 44.0578 121.826 43.943 121.58 43.7133C121.339 43.4836 121.219 43.1883 121.219 42.8273ZM125.329 49.4965C125.329 48.1129 125.638 47.0109 126.256 46.1906C126.879 45.3703 127.73 44.9602 128.807 44.9602C129.671 44.9602 130.385 45.2828 130.948 45.9281V41.4H133.327V54H131.186L131.071 53.0566C130.48 53.7949 129.72 54.1641 128.791 54.1641C127.746 54.1641 126.907 53.7539 126.272 52.9336C125.643 52.1078 125.329 50.9621 125.329 49.4965ZM127.7 49.6688C127.7 50.5 127.845 51.1371 128.134 51.5801C128.424 52.023 128.845 52.2445 129.398 52.2445C130.13 52.2445 130.647 51.9355 130.948 51.3176V47.8148C130.653 47.1969 130.141 46.8879 129.414 46.8879C128.271 46.8879 127.7 47.8148 127.7 49.6688ZM139.25 54.1641C137.948 54.1641 136.887 53.7648 136.067 52.9664C135.252 52.168 134.845 51.1043 134.845 49.7754V49.5457C134.845 48.6543 135.017 47.8586 135.361 47.1586C135.706 46.4531 136.193 45.9117 136.821 45.5344C137.456 45.1516 138.178 44.9602 138.987 44.9602C140.201 44.9602 141.155 45.343 141.85 46.1086C142.55 46.8742 142.9 47.9598 142.9 49.3652V50.3332H137.248C137.325 50.9129 137.554 51.3777 137.937 51.7277C138.325 52.0777 138.815 52.2527 139.405 52.2527C140.319 52.2527 141.032 51.9219 141.546 51.2602L142.711 52.5645C142.356 53.0676 141.875 53.4613 141.268 53.7457C140.661 54.0246 139.988 54.1641 139.25 54.1641ZM138.979 46.8797C138.509 46.8797 138.126 47.0383 137.83 47.3555C137.541 47.6727 137.355 48.1266 137.273 48.7172H140.57V48.5285C140.559 48.0035 140.417 47.5988 140.144 47.3145C139.87 47.0246 139.482 46.8797 138.979 46.8797ZM143.884 49.4801C143.884 48.5996 144.054 47.8148 144.393 47.1258C144.732 46.4367 145.219 45.9035 145.853 45.5262C146.493 45.1488 147.234 44.9602 148.076 44.9602C149.274 44.9602 150.25 45.3266 151.005 46.0594C151.765 46.7922 152.189 47.7875 152.276 49.0453L152.293 49.6523C152.293 51.0141 151.912 52.1078 151.152 52.9336C150.392 53.7539 149.372 54.1641 148.093 54.1641C146.813 54.1641 145.79 53.7539 145.025 52.9336C144.264 52.1133 143.884 50.9977 143.884 49.5867V49.4801ZM146.255 49.6523C146.255 50.4945 146.414 51.1398 146.731 51.5883C147.048 52.0313 147.502 52.2527 148.093 52.2527C148.667 52.2527 149.115 52.034 149.438 51.5965C149.761 51.1535 149.922 50.448 149.922 49.4801C149.922 48.6543 149.761 48.0145 149.438 47.5605C149.115 47.1066 148.661 46.8797 148.076 46.8797C147.496 46.8797 147.048 47.1066 146.731 47.5605C146.414 48.009 146.255 48.7063 146.255 49.6523ZM158.56 51.5473C158.56 51.2574 158.415 51.0305 158.125 50.8664C157.841 50.6969 157.381 50.5465 156.747 50.4152C154.636 49.9723 153.58 49.0754 153.58 47.7246C153.58 46.9371 153.906 46.2809 154.557 45.7559C155.213 45.2254 156.069 44.9602 157.124 44.9602C158.251 44.9602 159.15 45.2254 159.823 45.7559C160.501 46.2863 160.84 46.9754 160.84 47.823H158.47C158.47 47.484 158.36 47.2051 158.141 46.9863C157.923 46.7621 157.581 46.65 157.116 46.65C156.717 46.65 156.408 46.7402 156.189 46.9207C155.97 47.1012 155.861 47.3309 155.861 47.6098C155.861 47.8723 155.984 48.0855 156.23 48.2496C156.482 48.4082 156.903 48.5477 157.493 48.668C158.084 48.7828 158.582 48.9141 158.986 49.0617C160.239 49.5211 160.865 50.3168 160.865 51.4488C160.865 52.2582 160.518 52.9145 159.823 53.4176C159.129 53.9152 158.232 54.1641 157.132 54.1641C156.389 54.1641 155.727 54.0328 155.147 53.7703C154.573 53.5023 154.122 53.1387 153.794 52.6793C153.466 52.2145 153.302 51.7141 153.302 51.1781H155.549C155.571 51.5992 155.727 51.9219 156.017 52.1461C156.307 52.3703 156.695 52.4824 157.182 52.4824C157.636 52.4824 157.977 52.3977 158.207 52.2281C158.442 52.0531 158.56 51.8262 158.56 51.5473Z" fill="black"/>
<path d="M69.5938 37.75H69.125V38.9219C69.125 39.3086 68.8086 39.625 68.4219 39.625H66.0781C65.6914 39.625 65.375 39.3086 65.375 38.9219V37.75H46.625V38.9219C46.625 39.3086 46.3086 39.625 45.9219 39.625H43.5781C43.1914 39.625 42.875 39.3086 42.875 38.9219V37.75H42.4062C41.627 37.75 41 38.377 41 39.1562V58.8438C41 59.623 41.627 60.25 42.4062 60.25H42.875V59.0781C42.875 58.6914 43.1914 58.375 43.5781 58.375H45.9219C46.3086 58.375 46.625 58.6914 46.625 59.0781V60.25H65.375V59.0781C65.375 58.6914 65.6914 58.375 66.0781 58.375H68.4219C68.8086 58.375 69.125 58.6914 69.125 59.0781V60.25H69.5938C70.373 60.25 71 59.623 71 58.8438V39.1562C71 38.377 70.373 37.75 69.5938 37.75ZM46.625 55.7969C46.625 56.1836 46.3086 56.5 45.9219 56.5H43.5781C43.1914 56.5 42.875 56.1836 42.875 55.7969V53.4531C42.875 53.0664 43.1914 52.75 43.5781 52.75H45.9219C46.3086 52.75 46.625 53.0664 46.625 53.4531V55.7969ZM46.625 50.1719C46.625 50.5586 46.3086 50.875 45.9219 50.875H43.5781C43.1914 50.875 42.875 50.5586 42.875 50.1719V47.8281C42.875 47.4414 43.1914 47.125 43.5781 47.125H45.9219C46.3086 47.125 46.625 47.4414 46.625 47.8281V50.1719ZM46.625 44.5469C46.625 44.9336 46.3086 45.25 45.9219 45.25H43.5781C43.1914 45.25 42.875 44.9336 42.875 44.5469V42.2031C42.875 41.8164 43.1914 41.5 43.5781 41.5H45.9219C46.3086 41.5 46.625 41.8164 46.625 42.2031V44.5469ZM62.5625 56.7344C62.5625 57.1211 62.2461 57.4375 61.8594 57.4375H50.1406C49.7539 57.4375 49.4375 57.1211 49.4375 56.7344V51.1094C49.4375 50.7227 49.7539 50.4062 50.1406 50.4062H61.8594C62.2461 50.4062 62.5625 50.7227 62.5625 51.1094V56.7344ZM62.5625 46.8906C62.5625 47.2773 62.2461 47.5938 61.8594 47.5938H50.1406C49.7539 47.5938 49.4375 47.2773 49.4375 46.8906V41.2656C49.4375 40.8789 49.7539 40.5625 50.1406 40.5625H61.8594C62.2461 40.5625 62.5625 40.8789 62.5625 41.2656V46.8906ZM69.125 55.7969C69.125 56.1836 68.8086 56.5 68.4219 56.5H66.0781C65.6914 56.5 65.375 56.1836 65.375 55.7969V53.4531C65.375 53.0664 65.6914 52.75 66.0781 52.75H68.4219C68.8086 52.75 69.125 53.0664 69.125 53.4531V55.7969ZM69.125 50.1719C69.125 50.5586 68.8086 50.875 68.4219 50.875H66.0781C65.6914 50.875 65.375 50.5586 65.375 50.1719V47.8281C65.375 47.4414 65.6914 47.125 66.0781 47.125H68.4219C68.8086 47.125 69.125 47.4414 69.125 47.8281V50.1719ZM69.125 44.5469C69.125 44.9336 68.8086 45.25 68.4219 45.25H66.0781C65.6914 45.25 65.375 44.9336 65.375 44.5469V42.2031C65.375 41.8164 65.6914 41.5 66.0781 41.5H68.4219C68.8086 41.5 69.125 41.8164 69.125 42.2031V44.5469Z" fill="black"/>
<path fill-rule="evenodd" clip-rule="evenodd" d="M99.3895 29H48C36.9543 29 28 37.9543 28 49C28 60.0457 36.9543 69 48 69H100.264C92.7845 87.1914 74.888 100 54 100C26.3858 100 4 77.6142 4 50C4 22.3858 26.3858 0 54 0C74.1139 0 91.4539 11.8768 99.3895 29Z" fill="black"/>
</g>
<defs>
<filter id="filter0_d" x="0" y="0" width="164.865" height="108" filterUnits="userSpaceOnUse" color-interpolation-filters="sRGB">
<feFlood flood-opacity="0" result="BackgroundImageFix"/>
<feColorMatrix in="SourceAlpha" type="matrix" values="0 0 0 0 0 0 0 0 0 0 0 0 0 0 0 0 0 0 127 0"/>
<feOffset dy="4"/>
<feGaussianBlur stdDeviation="2"/>
<feColorMatrix type="matrix" values="0 0 0 0 0 0 0 0 0 0 0 0 0 0 0 0 0 0 0.25 0"/>
<feBlend mode="normal" in2="BackgroundImageFix" result="effect1_dropShadow"/>
<feBlend mode="normal" in="SourceGraphic" in2="effect1_dropShadow" result="shape"/>
</filter>
</defs>
</svg>
