<svg width="128" height="38" viewBox="0 0 128 38" fill="none" xmlns="http://www.w3.org/2000/svg">
<g filter="url(#filter0_d)">
<path d="M49.282 8.05625L52.35 16.7188L55.4016 8.05625H58.6336V20H56.1645V16.7352L56.4105 11.0996L53.1867 20H51.4969L48.2812 11.1078L48.5273 16.7352V20H46.0664V8.05625H49.282ZM63.941 16.6449L65.5816 11.1242H68.1246L64.5562 21.3781L64.3594 21.8457C63.8289 23.0051 62.9539 23.5848 61.7344 23.5848C61.3898 23.5848 61.0398 23.5328 60.6844 23.4289V21.6324L61.0453 21.6406C61.4937 21.6406 61.8273 21.5723 62.0461 21.4355C62.2703 21.2988 62.4453 21.0719 62.5711 20.7547L62.85 20.0246L59.741 11.1242H62.2922L63.941 16.6449ZM77.8125 17.0387L80.5195 8.05625H83.2594L79.1004 20H76.5328L72.3902 8.05625H75.1219L77.8125 17.0387ZM86.7375 20H84.3586V11.1242H86.7375V20ZM84.2191 8.82734C84.2191 8.47188 84.3367 8.1793 84.5719 7.94961C84.8125 7.71992 85.1379 7.60508 85.548 7.60508C85.9527 7.60508 86.2754 7.71992 86.516 7.94961C86.7566 8.1793 86.8769 8.47188 86.8769 8.82734C86.8769 9.18828 86.7539 9.48359 86.5078 9.71328C86.2672 9.94297 85.9473 10.0578 85.548 10.0578C85.1488 10.0578 84.8262 9.94297 84.5801 9.71328C84.3395 9.48359 84.2191 9.18828 84.2191 8.82734ZM88.3289 15.4965C88.3289 14.1129 88.6379 13.0109 89.2559 12.1906C89.8793 11.3703 90.7297 10.9602 91.807 10.9602C92.6711 10.9602 93.3848 11.2828 93.948 11.9281V7.4H96.327V20H94.1859L94.0711 19.0566C93.4805 19.7949 92.7203 20.1641 91.7906 20.1641C90.7461 20.1641 89.9066 19.7539 89.2723 18.9336C88.6434 18.1078 88.3289 16.9621 88.3289 15.4965ZM90.6996 15.6688C90.6996 16.5 90.8445 17.1371 91.1344 17.5801C91.4242 18.023 91.8453 18.2445 92.3977 18.2445C93.1305 18.2445 93.6473 17.9355 93.948 17.3176V13.8148C93.6527 13.1969 93.1414 12.8879 92.4141 12.8879C91.2711 12.8879 90.6996 13.8148 90.6996 15.6688ZM102.25 20.1641C100.948 20.1641 99.8871 19.7648 99.0668 18.9664C98.2519 18.168 97.8445 17.1043 97.8445 15.7754V15.5457C97.8445 14.6543 98.0168 13.8586 98.3613 13.1586C98.7059 12.4531 99.1926 11.9117 99.8215 11.5344C100.456 11.1516 101.178 10.9602 101.987 10.9602C103.201 10.9602 104.155 11.343 104.85 12.1086C105.55 12.8742 105.9 13.9598 105.9 15.3652V16.3332H100.248C100.325 16.9129 100.554 17.3777 100.937 17.7277C101.325 18.0777 101.815 18.2527 102.405 18.2527C103.319 18.2527 104.032 17.9219 104.546 17.2602L105.711 18.5645C105.356 19.0676 104.875 19.4613 104.268 19.7457C103.661 20.0246 102.988 20.1641 102.25 20.1641ZM101.979 12.8797C101.509 12.8797 101.126 13.0383 100.83 13.3555C100.541 13.6727 100.355 14.1266 100.273 14.7172H103.57V14.5285C103.559 14.0035 103.417 13.5988 103.144 13.3145C102.87 13.0246 102.482 12.8797 101.979 12.8797ZM106.884 15.4801C106.884 14.5996 107.054 13.8148 107.393 13.1258C107.732 12.4367 108.219 11.9035 108.853 11.5262C109.493 11.1488 110.234 10.9602 111.076 10.9602C112.274 10.9602 113.25 11.3266 114.005 12.0594C114.765 12.7922 115.189 13.7875 115.276 15.0453L115.293 15.6523C115.293 17.0141 114.912 18.1078 114.152 18.9336C113.392 19.7539 112.372 20.1641 111.093 20.1641C109.813 20.1641 108.79 19.7539 108.025 18.9336C107.264 18.1133 106.884 16.9977 106.884 15.5867V15.4801ZM109.255 15.6523C109.255 16.4945 109.414 17.1398 109.731 17.5883C110.048 18.0313 110.502 18.2527 111.093 18.2527C111.667 18.2527 112.115 18.034 112.438 17.5965C112.761 17.1535 112.922 16.448 112.922 15.4801C112.922 14.6543 112.761 14.0145 112.438 13.5605C112.115 13.1066 111.661 12.8797 111.076 12.8797C110.496 12.8797 110.048 13.1066 109.731 13.5605C109.414 14.009 109.255 14.7063 109.255 15.6523ZM121.56 17.5473C121.56 17.2574 121.415 17.0305 121.125 16.8664C120.841 16.6969 120.381 16.5465 119.747 16.4152C117.636 15.9723 116.58 15.0754 116.58 13.7246C116.58 12.9371 116.906 12.2809 117.557 11.7559C118.213 11.2254 119.069 10.9602 120.124 10.9602C121.251 10.9602 122.15 11.2254 122.823 11.7559C123.501 12.2863 123.84 12.9754 123.84 13.823H121.47C121.47 13.484 121.36 13.2051 121.141 12.9863C120.923 12.7621 120.581 12.65 120.116 12.65C119.717 12.65 119.408 12.7402 119.189 12.9207C118.97 13.1012 118.861 13.3309 118.861 13.6098C118.861 13.8723 118.984 14.0855 119.23 14.2496C119.482 14.4082 119.903 14.5477 120.493 14.668C121.084 14.7828 121.582 14.9141 121.986 15.0617C123.239 15.5211 123.865 16.3168 123.865 17.4488C123.865 18.2582 123.518 18.9145 122.823 19.4176C122.129 19.9152 121.232 20.1641 120.132 20.1641C119.389 20.1641 118.727 20.0328 118.147 19.7703C117.573 19.5023 117.122 19.1387 116.794 18.6793C116.466 18.2145 116.302 17.7141 116.302 17.1781H118.549C118.571 17.5992 118.727 17.9219 119.017 18.1461C119.307 18.3703 119.695 18.4824 120.182 18.4824C120.636 18.4824 120.977 18.3977 121.207 18.2281C121.442 18.0531 121.56 17.8262 121.56 17.5473Z" fill="black"/>
<path d="M32.5938 3.75H32.125V4.92188C32.125 5.30859 31.8086 5.625 31.4219 5.625H29.0781C28.6914 5.625 28.375 5.30859 28.375 4.92188V3.75H9.625V4.92188C9.625 5.30859 9.30859 5.625 8.92188 5.625H6.57812C6.19141 5.625 5.875 5.30859 5.875 4.92188V3.75H5.40625C4.62695 3.75 4 4.37695 4 5.15625V24.8438C4 25.623 4.62695 26.25 5.40625 26.25H5.875V25.0781C5.875 24.6914 6.19141 24.375 6.57812 24.375H8.92188C9.30859 24.375 9.625 24.6914 9.625 25.0781V26.25H28.375V25.0781C28.375 24.6914 28.6914 24.375 29.0781 24.375H31.4219C31.8086 24.375 32.125 24.6914 32.125 25.0781V26.25H32.5938C33.373 26.25 34 25.623 34 24.8438V5.15625C34 4.37695 33.373 3.75 32.5938 3.75ZM9.625 21.7969C9.625 22.1836 9.30859 22.5 8.92188 22.5H6.57812C6.19141 22.5 5.875 22.1836 5.875 21.7969V19.4531C5.875 19.0664 6.19141 18.75 6.57812 18.75H8.92188C9.30859 18.75 9.625 19.0664 9.625 19.4531V21.7969ZM9.625 16.1719C9.625 16.5586 9.30859 16.875 8.92188 16.875H6.57812C6.19141 16.875 5.875 16.5586 5.875 16.1719V13.8281C5.875 13.4414 6.19141 13.125 6.57812 13.125H8.92188C9.30859 13.125 9.625 13.4414 9.625 13.8281V16.1719ZM9.625 10.5469C9.625 10.9336 9.30859 11.25 8.92188 11.25H6.57812C6.19141 11.25 5.875 10.9336 5.875 10.5469V8.20312C5.875 7.81641 6.19141 7.5 6.57812 7.5H8.92188C9.30859 7.5 9.625 7.81641 9.625 8.20312V10.5469ZM25.5625 22.7344C25.5625 23.1211 25.2461 23.4375 24.8594 23.4375H13.1406C12.7539 23.4375 12.4375 23.1211 12.4375 22.7344V17.1094C12.4375 16.7227 12.7539 16.4062 13.1406 16.4062H24.8594C25.2461 16.4062 25.5625 16.7227 25.5625 17.1094V22.7344ZM25.5625 12.8906C25.5625 13.2773 25.2461 13.5938 24.8594 13.5938H13.1406C12.7539 13.5938 12.4375 13.2773 12.4375 12.8906V7.26562C12.4375 6.87891 12.7539 6.5625 13.1406 6.5625H24.8594C25.2461 6.5625 25.5625 6.87891 25.5625 7.26562V12.8906ZM32.125 21.7969C32.125 22.1836 31.8086 22.5 31.4219 22.5H29.0781C28.6914 22.5 28.375 22.1836 28.375 21.7969V19.4531C28.375 19.0664 28.6914 18.75 29.0781 18.75H31.4219C31.8086 18.75 32.125 19.0664 32.125 19.4531V21.7969ZM32.125 16.1719C32.125 16.5586 31.8086 16.875 31.4219 16.875H29.0781C28.6914 16.875 28.375 16.5586 28.375 16.1719V13.8281C28.375 13.4414 28.6914 13.125 29.0781 13.125H31.4219C31.8086 13.125 32.125 13.4414 32.125 13.8281V16.1719ZM32.125 10.5469C32.125 10.9336 31.8086 11.25 31.4219 11.25H29.0781C28.6914 11.25 28.375 10.9336 28.375 10.5469V8.20312C28.375 7.81641 28.6914 7.5 29.0781 7.5H31.4219C31.8086 7.5 32.125 7.81641 32.125 8.20312V10.5469Z" fill="black"/>
</g>
<defs>
<filter id="filter0_d" x="0" y="0" width="127.865" height="38" filterUnits="userSpaceOnUse" color-interpolation-filters="sRGB">
<feFlood flood-opacity="0" result="BackgroundImageFix"/>
<feColorMatrix in="SourceAlpha" type="matrix" values="0 0 0 0 0 0 0 0 0 0 0 0 0 0 0 0 0 0 127 0"/>
<feOffset dy="4"/>
<feGaussianBlur stdDeviation="2"/>
<feColorMatrix type="matrix" values="0 0 0 0 0 0 0 0 0 0 0 0 0 0 0 0 0 0 0.25 0"/>
<feBlend mode="normal" in2="BackgroundImageFix" result="effect1_dropShadow"/>
<feBlend mode="normal" in="SourceGraphic" in2="effect1_dropShadow" result="shape"/>
</filter>
</defs>
</svg>
